<svg width="16" height="17" viewBox="0 0 16 17" fill="none" xmlns="http://www.w3.org/2000/svg">
<g clip-path="url(#clip0)">
<path d="M6.44444 15.5195H9.55556M13.4444 15.5195V3.07509C13.4444 2.66253 13.2806 2.26687 12.9888 1.97514C12.6971 1.68342 12.3014 1.51953 11.8889 1.51953H4.11111C3.69855 1.51953 3.30289 1.68342 3.01117 1.97514C2.71944 2.26687 2.55556 2.66253 2.55556 3.07509V15.5195H13.4444ZM13.4444 15.5195H15H13.4444ZM13.4444 15.5195H9.55556H13.4444ZM2.55556 15.5195H1H2.55556ZM2.55556 15.5195H6.44444H2.55556ZM5.66667 4.63064H6.44444H5.66667ZM5.66667 7.74175H6.44444H5.66667ZM9.55556 4.63064H10.3333H9.55556ZM9.55556 7.74175H10.3333H9.55556ZM6.44444 15.5195V11.6306C6.44444 11.4244 6.52639 11.2265 6.67225 11.0807C6.81811 10.9348 7.01594 10.8529 7.22222 10.8529H8.77778C8.98406 10.8529 9.18189 10.9348 9.32775 11.0807C9.47361 11.2265 9.55556 11.4244 9.55556 11.6306V15.5195H6.44444Z" stroke="#828282" stroke-linecap="round" stroke-linejoin="round"/>
</g>
<defs>
<clipPath id="clip0">
<rect width="16" height="16" fill="white" transform="translate(0 0.519531)"/>
</clipPath>
</defs>
</svg>
