<svg width="24" height="24" viewBox="0 0 24 24" fill="none" xmlns="http://www.w3.org/2000/svg">
<path d="M20 6.00012H16V4.00012C16 2.90012 15.1 2.00012 14 2.00012H10C8.9 2.00012 8 2.90012 8 4.00012V6.00012H4C2.9 6.00012 2 6.90012 2 8.00012V20.0001C2 21.1001 2.9 22.0001 4 22.0001H20C21.1 22.0001 22 21.1001 22 20.0001V8.00012C22 6.90012 21.1 6.00012 20 6.00012ZM10 4.00012H14V6.00012H10V4.00012ZM20 20.0001H4V8.00012H20V20.0001Z" fill="#2962FF"/>
<path d="M13 10.0001H11V13.0001H8V15.0001H11V18.0001H13V15.0001H16V13.0001H13V10.0001Z" fill="#2962FF"/>
</svg>
