<svg width="16" height="17" viewBox="0 0 16 17" fill="none" xmlns="http://www.w3.org/2000/svg">
<path d="M14.6665 11.7995V13.7995C14.6673 13.9852 14.6292 14.169 14.5549 14.3391C14.4805 14.5092 14.3714 14.6619 14.2346 14.7874C14.0978 14.9129 13.9362 15.0085 13.7604 15.068C13.5845 15.1275 13.3981 15.1496 13.2132 15.1328C11.1617 14.9099 9.19119 14.2089 7.45986 13.0862C5.84908 12.0626 4.48342 10.697 3.45986 9.08618C2.33318 7.34698 1.63202 5.36684 1.41319 3.30618C1.39653 3.12183 1.41844 2.93602 1.47753 2.7606C1.53661 2.58517 1.63157 2.42397 1.75637 2.28726C1.88117 2.15055 2.03306 2.04132 2.20239 1.96653C2.37171 1.89174 2.55475 1.85302 2.73986 1.85285H4.73986C5.0634 1.84966 5.37705 1.96423 5.62237 2.1752C5.86768 2.38617 6.02791 2.67915 6.07319 2.99951C6.15761 3.63956 6.31416 4.268 6.53986 4.87285C6.62956 5.11146 6.64897 5.37079 6.5958 5.6201C6.54263 5.86941 6.4191 6.09826 6.23986 6.27951L5.39319 7.12618C6.34223 8.79521 7.72416 10.1771 9.39319 11.1262L10.2399 10.2795C10.4211 10.1003 10.65 9.97675 10.8993 9.92358C11.1486 9.87041 11.4079 9.88982 11.6465 9.97951C12.2514 10.2052 12.8798 10.3618 13.5199 10.4462C13.8437 10.4919 14.1395 10.655 14.3509 10.9045C14.5623 11.154 14.6746 11.4726 14.6665 11.7995Z" stroke="#828282" stroke-linecap="round" stroke-linejoin="round"/>
</svg>
