<svg width="16" height="16" viewBox="0 0 16 16" fill="none" xmlns="http://www.w3.org/2000/svg">
<path d="M13.8182 8.5381C13.8191 8.13529 13.7068 7.74032 13.4943 7.39811C13.2818 7.0559 12.9776 6.78018 12.6162 6.60229C12.2548 6.4244 11.8507 6.35149 11.4499 6.39183C11.0491 6.43218 10.6677 6.58417 10.349 6.83052C10.0303 7.07687 9.78708 7.4077 9.64705 7.78539C9.50702 8.16309 9.47577 8.5725 9.55685 8.96707C9.63794 9.36164 9.8281 9.72555 10.1057 10.0174C10.3834 10.3093 10.7373 10.5174 11.1273 10.6181V11.229C11.1273 11.9446 10.8431 12.6309 10.3371 13.1369C9.83104 13.6429 9.14475 13.9272 8.42915 13.9272C7.71355 13.9272 7.02725 13.6429 6.52125 13.1369C6.01524 12.6309 5.73097 11.9446 5.73097 11.229C5.75802 10.5866 5.91505 9.95636 6.19255 9.37635C6.47006 8.79634 6.86228 8.27862 7.34551 7.85447H7.27278C7.78709 7.51894 8.21121 7.06234 8.50792 6.5247C8.80464 5.98707 8.96488 5.38483 8.9746 4.77083V2.60356C8.9746 2.17535 8.8045 1.76469 8.50171 1.4619C8.19893 1.15912 7.78826 0.989014 7.36006 0.989014H6.54551C6.40278 0.989014 6.26589 1.04571 6.16496 1.14664C6.06403 1.24757 6.00733 1.38446 6.00733 1.5272C6.00733 1.66993 6.06403 1.80682 6.16496 1.90775C6.26589 2.00868 6.40278 2.06538 6.54551 2.06538H7.34551C7.48825 2.06538 7.62513 2.12208 7.72606 2.22301C7.82699 2.32394 7.88369 2.46082 7.88369 2.60356V4.77083C7.8837 5.48199 7.6022 6.16424 7.10069 6.66847C6.59919 7.17269 5.91848 7.4579 5.20733 7.46174V7.85447V7.46174C4.85395 7.46366 4.50366 7.39595 4.17645 7.26248C3.84924 7.12902 3.55152 6.93241 3.3003 6.68389C3.04907 6.43536 2.84926 6.13979 2.71226 5.81404C2.57527 5.48829 2.50378 5.13875 2.50188 4.78538V2.60356C2.50188 2.46082 2.55858 2.32394 2.65951 2.22301C2.76043 2.12208 2.89732 2.06538 3.04006 2.06538H3.79642C3.93916 2.06538 4.07604 2.00868 4.17697 1.90775C4.2779 1.80682 4.3346 1.66993 4.3346 1.5272C4.3346 1.38446 4.2779 1.24757 4.17697 1.14664C4.07604 1.04571 3.93916 0.989014 3.79642 0.989014H3.04006C2.61691 0.996639 2.21368 1.1701 1.91716 1.47207C1.62064 1.77403 1.45453 2.18035 1.4546 2.60356V4.77083C1.45303 5.37572 1.5977 5.97202 1.87629 6.50894C2.15488 7.04586 2.55913 7.50748 3.0546 7.85447C3.53518 8.2799 3.92469 8.79819 4.19966 9.37813C4.47464 9.95808 4.62939 10.5877 4.6546 11.229C4.6546 11.7247 4.75223 12.2155 4.94192 12.6735C5.13161 13.1314 5.40964 13.5475 5.76014 13.898C6.11064 14.2485 6.52674 14.5265 6.98469 14.7162C7.44264 14.9059 7.93347 15.0036 8.42915 15.0036C8.92483 15.0036 9.41566 14.9059 9.8736 14.7162C10.3316 14.5265 10.7477 14.2485 11.0982 13.898C11.4487 13.5475 11.7267 13.1314 11.9164 12.6735C12.1061 12.2155 12.2037 11.7247 12.2037 11.229V10.6181C12.6651 10.499 13.0739 10.2301 13.3661 9.85373C13.6582 9.47732 13.8173 9.01461 13.8182 8.5381ZM11.6364 9.61447C11.4235 9.61447 11.2154 9.55134 11.0384 9.43307C10.8614 9.3148 10.7235 9.14669 10.642 8.95001C10.5605 8.75333 10.5392 8.53691 10.5807 8.32812C10.6223 8.11932 10.7248 7.92753 10.8753 7.777C11.0258 7.62647 11.2176 7.52395 11.4264 7.48242C11.6352 7.44089 11.8516 7.46221 12.0483 7.54367C12.245 7.62514 12.4131 7.7631 12.5314 7.94011C12.6497 8.11712 12.7128 8.32522 12.7128 8.5381C12.7128 8.67945 12.6849 8.81942 12.6309 8.95001C12.5768 9.0806 12.4975 9.19926 12.3975 9.29921C12.2976 9.39916 12.1789 9.47844 12.0483 9.53253C11.9177 9.58663 11.7778 9.61447 11.6364 9.61447Z" fill="#BDBDBD"/>
</svg>
